<?xml version="1.0" encoding="utf-8"?>
<svg width="800px" height="800px" viewBox="0 0 32 32" xmlns="http://www.w3.org/2000/svg"><title>file_type_pdf</title><path d="M28.781,4.405H18.651V2.018L2,4.588V27.115l16.651,2.868V26.445H28.781A1.162,1.162,0,0,0,30,25.349V5.5A1.162,1.162,0,0,0,28.781,4.405Zm.16,21.126H18.617L18.6,23.642h2.487v-2.2H18.581l-.012-1.3h2.518v-2.2H18.55l-.012-1.3h2.549v-2.2H18.53v-1.3h2.557v-2.2H18.53v-1.3h2.557v-2.2H18.53v-2H28.941Z" style="fill:#dc3545;fill-rule:evenodd"/><rect x="22.487" y="7.439" width="4.323" height="2.2" style="fill:#dc3545"/><rect x="22.487" y="10.94" width="4.323" height="2.2" style="fill:#dc3545"/><rect x="22.487" y="14.441" width="4.323" height="2.2" style="fill:#dc3545"/><rect x="22.487" y="17.942" width="4.323" height="2.2" style="fill:#dc3545"/><rect x="22.487" y="21.443" width="4.323" height="2.2" style="fill:#dc3545"/><text x="6" y="18" style="fill:#ffffff;font-family:Arial,sans-serif;font-size:8px;font-weight:bold">PDF</text></svg>